<?xml version="1.0" standalone="no"?>
<!DOCTYPE svg PUBLIC "-//W3C//DTD SVG 20010904//EN"
 "http://www.w3.org/TR/2001/REC-SVG-20010904/DTD/svg10.dtd">
<svg version="1.0" xmlns="http://www.w3.org/2000/svg"
 width="356.000000pt" height="356.000000pt" viewBox="0 0 356.000000 356.000000"
 preserveAspectRatio="xMidYMid meet">
<metadata>
Created by potrace 1.14, written by Peter Selinger 2001-2017
</metadata>
<g transform="translate(0.000000,356.000000) scale(0.100000,-0.100000)"
fill="#000000" stroke="none">
<path d="M1383 3552 c-8 -5 -12 -27 -10 -60 1 -29 0 -52 -3 -53 -3 0 -25 -3
-49 -5 -24 -3 -75 -17 -113 -30 -38 -14 -72 -23 -76 -20 -3 3 2 6 11 6 9 0 17
4 17 10 0 18 -154 -59 -185 -93 -11 -12 -38 -33 -60 -47 -131 -79 -248 -183
-355 -316 -33 -41 -111 -173 -140 -239 -44 -98 -46 -102 -69 -175 -28 -89 -48
-178 -67 -295 -8 -53 -7 -52 -56 -60 -53 -9 -115 -31 -145 -51 -22 -14 -22
-16 -8 -38 9 -13 18 -36 20 -50 3 -14 7 -37 9 -51 7 -39 16 -47 47 -43 27 4
30 1 39 -36 26 -106 23 -101 59 -102 l34 0 32 -100 c17 -54 42 -119 54 -144
41 -80 213 -314 278 -378 28 -28 28 -30 -1 -120 -12 -41 -23 -87 -22 -105 1
-26 6 -32 33 -39 41 -11 74 -57 71 -99 -3 -29 1 -33 29 -41 17 -4 41 -20 52
-34 17 -21 23 -24 40 -14 15 8 21 8 21 0 0 -6 5 -8 11 -4 6 3 16 0 21 -7 8
-12 9 -11 5 1 -7 25 27 75 52 75 12 0 28 8 35 18 7 9 17 17 21 17 4 0 2 -7 -5
-15 -7 -8 -14 -29 -16 -47 -2 -17 -9 -37 -14 -43 -8 -9 -7 -15 2 -18 7 -3 8
-6 2 -6 -6 -1 -9 -12 -6 -26 3 -18 11 -25 27 -25 13 0 37 -13 55 -30 24 -23
36 -27 53 -21 12 4 28 6 35 4 11 -4 92 151 92 177 0 9 8 12 28 9 4 -1 6 -5 4
-11 -1 -5 2 -7 8 -3 6 4 22 0 35 -9 13 -9 34 -16 46 -16 12 0 19 -3 15 -7 -12
-12 193 -61 299 -70 134 -13 335 -5 439 17 28 6 53 7 57 3 4 -5 29 -57 57
-118 46 -103 126 -263 120 -239 -2 8 -45 114 -108 269 -19 44 -32 97 -26 102
3 4 6 1 6 -6 0 -15 40 -117 82 -211 63 -140 141 -300 145 -296 4 4 -9 35 -58
144 -10 23 -19 47 -19 52 0 6 -9 29 -19 53 -20 42 -91 259 -91 275 0 5 11 14
24 20 22 10 26 8 41 -25 10 -19 18 -42 19 -49 1 -8 8 -20 14 -26 7 -7 12 -17
12 -24 0 -6 7 -24 14 -40 8 -15 13 -31 10 -36 -3 -4 0 -8 6 -8 6 0 8 -4 5 -10
-3 -5 -2 -10 2 -10 5 0 18 -19 28 -42 70 -160 115 -242 115 -209 0 5 -3 11 -7
13 -5 1 -23 41 -42 88 -18 47 -37 94 -42 105 -29 68 -38 98 -33 106 3 5 0 9
-6 9 -7 0 -10 7 -6 15 3 8 2 15 -3 15 -5 0 -12 15 -16 33 -4 17 -9 34 -10 37
-1 3 -5 12 -8 20 -15 36 -15 69 0 75 19 7 36 -7 38 -32 0 -10 4 -23 7 -28 3
-6 16 -39 27 -75 12 -36 26 -74 31 -85 5 -11 21 -49 36 -85 57 -141 176 -393
193 -410 13 -13 14 -13 4 0 -15 22 -126 309 -163 425 -42 128 -88 316 -83 332
3 7 13 15 24 18 43 14 199 126 275 198 170 160 280 375 311 604 9 72 10 280 0
351 -4 28 -3 52 1 53 9 1 22 3 117 23 44 10 89 19 100 21 96 20 205 51 205 58
0 4 -4 6 -8 3 -8 -5 -113 -15 -227 -21 -76 -5 -166 -14 -182 -20 -18 -6 -42
22 -38 45 2 11 0 20 -6 20 -5 0 -9 10 -9 23 0 20 10 24 100 45 55 13 100 28
100 33 0 6 -3 8 -8 5 -6 -4 -49 -9 -182 -21 -44 -5 -21 9 35 20 22 5 42 9 45
10 3 0 23 5 45 10 22 5 42 9 45 10 3 1 31 7 62 15 32 7 55 17 52 22 -3 4 -8 6
-12 4 -7 -4 -69 -11 -187 -21 -38 -4 -84 -8 -102 -10 -27 -3 -33 0 -41 24
l-10 27 84 18 c46 10 81 23 78 27 -3 5 -9 7 -14 4 -4 -3 -43 -7 -86 -11 l-79
-5 -19 48 c-40 99 -111 206 -197 298 -26 28 -74 84 -107 125 -33 41 -79 93
-103 115 l-43 40 45 -53 c66 -80 115 -149 162 -232 57 -99 65 -123 28 -80 -17
19 -30 38 -31 43 0 4 -5 7 -11 7 -6 0 0 -15 13 -32 32 -44 45 -69 19 -38 -38
45 -65 84 -53 76 23 -14 12 6 -18 31 -16 13 -30 29 -30 34 0 17 -131 162 -138
154 -3 -3 -44 32 -90 77 -47 46 -81 77 -77 69 5 -8 -21 6 -56 31 -35 25 -80
55 -100 66 -69 39 -79 47 -79 69 0 22 -7 25 -100 38 -73 10 -83 15 -69 31 7 9
8 14 1 14 -10 0 -7 93 3 110 9 14 -14 30 -51 35 -67 9 -108 14 -126 14 -10 1
-18 11 -20 28 -3 31 3 30 -188 38 -69 2 -131 1 -137 -3z m-383 -246 c0 -2 -7
-7 -16 -10 -8 -3 -12 -2 -9 4 6 10 25 14 25 6z m1180 -365 c132 -106 203 -206
266 -381 33 -90 29 -99 -7 -15 -16 39 -35 80 -41 92 -20 40 -19 17 1 -36 24
-60 21 -65 -9 -16 -12 19 -25 33 -29 30 -4 -2 -16 13 -25 33 -22 48 -68 114
-74 108 -2 -3 5 -20 16 -38 11 -18 41 -73 66 -123 25 -49 46 -84 46 -77 0 7
-5 22 -11 34 -6 11 -9 22 -6 24 7 8 76 -121 97 -181 18 -51 18 -55 2 -56 -9 0
-30 -2 -47 -5 -16 -2 -50 -6 -75 -9 -44 -4 -44 -4 -20 11 20 12 21 14 5 10
-11 -2 -42 -7 -70 -11 -27 -3 -58 -8 -67 -11 -21 -6 -25 25 -5 45 8 10 8 12 0
7 -16 -9 -22 3 -28 60 -2 27 -7 60 -9 74 -3 14 -8 45 -11 70 -3 25 -8 56 -10
70 -3 14 -7 39 -9 55 -17 108 -26 165 -31 198 -3 20 -7 53 -10 72 l-5 35 28
-17 c15 -9 47 -33 72 -52z m381 -116 c6 -11 -6 0 -27 24 -55 62 -75 96 -25 41
23 -25 46 -54 52 -65z m-11 -144 c0 -6 -8 3 -48 55 -18 23 -32 45 -32 50 0 4
18 -17 40 -46 22 -29 40 -56 40 -59z m264 -61 c43 -65 65 -103 87 -150 6 -14
16 -33 21 -44 11 -21 -3 -42 -24 -34 -10 4 -88 143 -93 168 -4 14 -29 72 -56
125 -30 60 -30 60 -4 30 15 -16 46 -59 69 -95z m-675 -193 c5 -27 5 -47 0 -47
-5 0 -9 3 -10 8 0 4 -3 27 -6 52 -7 58 4 48 16 -13z m815 -83 c10 -26 7 -34
-13 -34 -23 0 -37 30 -19 42 19 11 25 10 32 -8z m44 -186 l1 -43 -14 39 c-8
21 -12 42 -9 47 11 18 20 0 22 -43z m-488 -98 c0 -5 -10 -10 -22 -10 -19 0
-20 2 -8 10 19 13 30 13 30 0z m-57 -7 c-7 -2 -19 -2 -25 0 -7 3 -2 5 12 5 14
0 19 -2 13 -5z m588 -40 c0 -10 3 -27 5 -38 8 -35 10 -229 3 -255 -5 -17 -8
-2 -9 45 -4 107 -14 205 -26 248 -4 11 0 17 10 17 9 0 16 -8 17 -17z m-624
-190 c-2 -5 -19 -38 -37 -75 -31 -63 -94 -148 -103 -138 -4 5 -36 128 -44 171
-4 24 -2 25 39 27 35 2 134 16 146 21 2 0 1 -2 -1 -6z m39 -18 c-18 -70 -108
-226 -123 -212 -3 3 11 32 30 64 20 32 45 84 57 116 21 57 48 81 36 32z m-636
-154 c17 -64 35 -134 40 -156 5 -22 18 -66 29 -97 22 -64 21 -65 -49 -91 -96
-34 -170 -48 -287 -54 l-122 -6 71 194 c38 107 80 221 91 253 l22 60 56 3 56
4 33 -123 c18 -68 38 -129 44 -136 7 -7 -3 45 -21 115 -18 71 -31 133 -29 139
2 6 11 11 19 11 10 0 24 -35 47 -116z m429 2 c11 -40 16 -75 12 -77 -4 -3 -16
33 -27 80 -24 101 -14 99 15 -3z m-232 -25 c-3 -8 -6 -5 -6 6 -1 11 2 17 5 13
3 -3 4 -12 1 -19z m16 -55 c3 -16 9 -36 12 -45 4 -10 3 -18 -2 -18 -5 0 -14
22 -19 49 -6 28 -7 48 -3 46 3 -3 9 -17 12 -32z m278 -6 c-10 -9 -11 -8 -5 6
3 10 9 15 12 12 3 -3 0 -11 -7 -18z m-425 -34 c-3 -6 -1 -13 4 -15 4 -2 10
-16 13 -33 3 -16 12 -52 21 -80 19 -60 19 -55 3 -55 -14 0 -51 135 -42 150 3
5 1 11 -4 15 -6 3 -7 13 -4 22 4 9 2 14 -3 10 -5 -3 -10 3 -10 14 0 19 1 19
13 2 8 -9 11 -23 9 -30z m281 -29 c-3 -3 -12 -4 -19 -1 -8 3 -5 6 6 6 11 1 17
-2 13 -5z m-112 -34 c3 -13 9 -28 15 -34 6 -6 6 1 0 24 -13 44 -6 51 9 9 12
-35 0 -62 -19 -43 -11 11 -27 83 -16 73 4 -4 9 -17 11 -29z m711 -48 c-17 -16
-18 -16 -5 5 7 12 15 20 18 17 3 -2 -3 -12 -13 -22z m-21 -42 c-3 -5 -11 -10
-16 -10 -6 0 -7 5 -4 10 3 6 11 10 16 10 6 0 7 -4 4 -10z m-42 -50 c-14 -16
-28 -30 -30 -30 -2 0 6 14 19 30 12 17 25 30 30 30 4 0 -4 -13 -19 -30z"/>
<path d="M933 765 c-3 -9 -3 -18 -1 -21 3 -3 8 4 11 16 6 23 -1 27 -10 5z"/>
<path d="M950 740 c0 -6 7 -10 15 -10 8 0 15 2 15 4 0 2 -7 6 -15 10 -8 3 -15
1 -15 -4z"/>
<path d="M950 680 c0 -5 5 -10 11 -10 5 0 7 5 4 10 -3 6 -8 10 -11 10 -2 0 -4
-4 -4 -10z"/>
<path d="M955 640 c3 -5 8 -10 11 -10 2 0 4 5 4 10 0 6 -5 10 -11 10 -5 0 -7
-4 -4 -10z"/>
</g>
</svg>
